<svg xmlns="http://www.w3.org/2000/svg" viewBox="0 0 1200 420" role="img" aria-label="Latin American sanctuary illustration">
  <defs>
    <linearGradient id="bg" x1="0" y1="0" x2="1" y2="1">
      <stop offset="0%" stop-color="#31525f"/>
      <stop offset="100%" stop-color="#8d4334"/>
    </linearGradient>
    <linearGradient id="stone" x1="0" y1="0" x2="0" y2="1">
      <stop offset="0%" stop-color="#f4dfba"/>
      <stop offset="100%" stop-color="#c09163"/>
    </linearGradient>
  </defs>
  <rect width="1200" height="420" fill="url(#bg)"/>
  <circle cx="980" cy="80" r="64" fill="#f4d179" opacity=".2"/>
  <rect x="150" y="130" width="900" height="230" rx="18" fill="#6a402f"/>
  <rect x="230" y="96" width="740" height="264" rx="16" fill="#82513d"/>
  <rect x="288" y="138" width="624" height="202" rx="12" fill="#93644a"/>
  <path d="M442 340V214c0-83 66-138 158-138s158 55 158 138v126z" fill="url(#stone)"/>
  <path d="M485 340V224c0-57 48-96 115-96s115 39 115 96v116z" fill="#5a3325"/>
  <rect x="560" y="200" width="80" height="140" rx="40" fill="#241613"/>
  <rect x="597" y="200" width="6" height="140" fill="#d8bc82" opacity=".72"/>
  <path d="M520 110l18 12 20-9 2 22 18 11-17 13 4 22-21-8-16 15-7-21-21-6 13-17z" fill="#e9cf84"/>
  <path d="M680 110l18 12 20-9 2 22 18 11-17 13 4 22-21-8-16 15-7-21-21-6 13-17z" fill="#e9cf84"/>
</svg>
