<svg xmlns="http://www.w3.org/2000/svg" viewBox="0 0 1200 420" role="img" aria-label="Basilica facade illustration">
  <defs>
    <linearGradient id="bg" x1="0" y1="0" x2="1" y2="1">
      <stop offset="0%" stop-color="#25364c"/>
      <stop offset="100%" stop-color="#7a5a3a"/>
    </linearGradient>
    <linearGradient id="stone" x1="0" y1="0" x2="0" y2="1">
      <stop offset="0%" stop-color="#efe2bf"/>
      <stop offset="100%" stop-color="#b38d64"/>
    </linearGradient>
  </defs>
  <rect width="1200" height="420" fill="url(#bg)"/>
  <rect x="140" y="135" width="920" height="230" rx="18" fill="#5c3b2d"/>
  <rect x="205" y="95" width="790" height="265" rx="14" fill="#72503d"/>
  <rect x="270" y="140" width="660" height="190" rx="12" fill="#85614b"/>
  <rect x="510" y="188" width="180" height="142" rx="22" fill="#3e241b"/>
  <path d="M545 330V218c0-45 27-78 55-95 28 17 55 50 55 95v112z" fill="#1f1310"/>
  <circle cx="600" cy="132" r="56" fill="#4a2c25" stroke="#e8cf8b" stroke-width="10"/>
  <circle cx="600" cy="132" r="27" fill="#e8cf8b" opacity=".88"/>
  <path d="M600 84v96M552 132h96M567 99l66 66M633 99l-66 66" stroke="#4a2c25" stroke-width="10" stroke-linecap="round"/>
  <rect x="325" y="170" width="95" height="130" rx="10" fill="url(#stone)" opacity=".72"/>
  <rect x="780" y="170" width="95" height="130" rx="10" fill="url(#stone)" opacity=".72"/>
  <rect x="250" y="118" width="110" height="22" rx="11" fill="#e8cf8b" opacity=".65"/>
</svg>
