<svg xmlns="http://www.w3.org/2000/svg" viewBox="0 0 1200 420" role="img" aria-label="Sanctuary towers illustration">
  <defs>
    <linearGradient id="sky" x1="0" y1="0" x2="1" y2="1">
      <stop offset="0%" stop-color="#8bb7cf"/>
      <stop offset="100%" stop-color="#f0c8a2"/>
    </linearGradient>
    <linearGradient id="stone" x1="0" y1="0" x2="0" y2="1">
      <stop offset="0%" stop-color="#fff2d8"/>
      <stop offset="100%" stop-color="#d8b78e"/>
    </linearGradient>
  </defs>
  <rect width="1200" height="420" fill="url(#sky)"/>
  <rect y="300" width="1200" height="120" fill="#ccb08a"/>
  <rect x="220" y="145" width="760" height="190" rx="16" fill="#f8ecd7" opacity=".95"/>
  <rect x="300" y="110" width="130" height="225" rx="18" fill="url(#stone)"/>
  <rect x="770" y="110" width="130" height="225" rx="18" fill="url(#stone)"/>
  <rect x="450" y="170" width="300" height="165" rx="20" fill="#f1dfc0"/>
  <rect x="540" y="205" width="120" height="130" rx="55" fill="#8a6247"/>
  <rect x="572" y="205" width="10" height="130" fill="#f1dfc0" opacity=".7"/>
  <path d="M365 78l20 29 20-29h-10V46h-20v32z" fill="#fff2d8"/>
  <path d="M835 78l20 29 20-29h-10V46h-20v32z" fill="#fff2d8"/>
  <path d="M600 126l16 23 16-23h-8V88h-16v38z" fill="#d7aa57"/>
  <circle cx="600" cy="108" r="32" fill="#ffffff" opacity=".75"/>
</svg>
