<svg xmlns="http://www.w3.org/2000/svg" viewBox="0 0 1200 420" role="img" aria-label="Shrine facade illustration">
  <defs>
    <linearGradient id="bg" x1="0" y1="0" x2="1" y2="1">
      <stop offset="0%" stop-color="#4d2336"/>
      <stop offset="100%" stop-color="#a37b56"/>
    </linearGradient>
    <linearGradient id="stone" x1="0" y1="0" x2="0" y2="1">
      <stop offset="0%" stop-color="#f3e2c2"/>
      <stop offset="100%" stop-color="#c59d70"/>
    </linearGradient>
  </defs>
  <rect width="1200" height="420" fill="url(#bg)"/>
  <rect x="175" y="125" width="850" height="235" rx="18" fill="#683e2d"/>
  <rect x="250" y="92" width="700" height="268" rx="16" fill="#80513c"/>
  <rect x="320" y="142" width="560" height="198" rx="12" fill="#8f6246"/>
  <rect x="350" y="172" width="88" height="130" rx="10" fill="url(#stone)" opacity=".82"/>
  <rect x="762" y="172" width="88" height="130" rx="10" fill="url(#stone)" opacity=".82"/>
  <path d="M470 340V210c0-78 54-132 130-132s130 54 130 132v130z" fill="url(#stone)"/>
  <path d="M510 340V223c0-52 36-90 90-90s90 38 90 90v117z" fill="#552f22"/>
  <rect x="562" y="196" width="76" height="144" rx="36" fill="#281613"/>
  <circle cx="600" cy="112" r="34" fill="#f3e2c2" opacity=".9"/>
  <rect x="584" y="91" width="32" height="42" rx="8" fill="#45221f"/>
  <path d="M592 104c10-8 21-8 29 0v17c-9 9-20 12-29 9-9 3-20 0-29-9v-17c8-8 19-8 29 0z" fill="#d8bc74"/>
</svg>
