<svg xmlns="http://www.w3.org/2000/svg" viewBox="0 0 1200 420" role="img" aria-label="African Catholic landmark">
  <defs>
    <linearGradient id="sky" x1="0" y1="0" x2="1" y2="1">
      <stop offset="0" stop-color="#284a54"/>
      <stop offset="0.52" stop-color="#8d5f3a"/>
      <stop offset="1" stop-color="#d6a457"/>
    </linearGradient>
    <linearGradient id="stone" x1="0" y1="0" x2="0" y2="1">
      <stop offset="0" stop-color="#f3dfb8"/>
      <stop offset="1" stop-color="#b9854f"/>
    </linearGradient>
    <radialGradient id="sun" cx="47%" cy="39%" r="44%">
      <stop offset="0" stop-color="#ffe6a6" stop-opacity="0.95"/>
      <stop offset="1" stop-color="#ffe6a6" stop-opacity="0"/>
    </radialGradient>
  </defs>
  <rect width="1200" height="420" fill="url(#sky)"/>
  <rect width="1200" height="420" fill="url(#sun)"/>
  <path d="M0 322c120-26 211-31 330-11 101 17 155 18 260 0 151-26 261-20 403 17 88 23 151 24 207 7v85H0z" fill="#4c3c2d" opacity=".48"/>
  <path d="M0 352c150-24 301-12 455 10 117 17 211 4 322-17 159-30 284-15 423 21v54H0z" fill="#2b241f" opacity=".72"/>
  <path d="M730 132c56 10 93 49 93 104v108H637V236c0-55 37-94 93-104z" fill="#7f4b2e" opacity=".72"/>
  <path d="M314 340V194c0-83 64-139 146-139s146 56 146 139v146z" fill="url(#stone)"/>
  <path d="M357 340V205c0-59 44-99 103-99s103 40 103 99v135z" fill="#3b241c"/>
  <path d="M414 340V235c0-32 20-55 46-55s46 23 46 55v105z" fill="#181312"/>
  <path d="M460 51V19M444 32h32" stroke="#f6d88f" stroke-width="10" stroke-linecap="round"/>
  <path d="M282 340h356" stroke="#f6d88f" stroke-width="14" stroke-linecap="round"/>
  <path d="M744 344V232c0-34 24-59 55-59s55 25 55 59v112z" fill="#c79a62"/>
  <path d="M772 344v-95c0-19 11-33 27-33s27 14 27 33v95z" fill="#201512"/>
  <path d="M799 173v-35M783 151h32" stroke="#f6d88f" stroke-width="8" stroke-linecap="round"/>
  <path d="M118 338c13-44 42-61 68-62 32-1 61 26 72 62" fill="none" stroke="#161b17" stroke-width="15" stroke-linecap="round"/>
  <path d="M185 279c-10-69 3-123 43-168" fill="none" stroke="#161b17" stroke-width="13" stroke-linecap="round"/>
  <path d="M198 160c-39-2-70 11-95 44 52 4 89-6 111-31" fill="#253323"/>
  <path d="M215 135c41-24 82-25 124-4-37 33-78 42-124 18" fill="#2d3c27"/>
  <path d="M205 208c43-11 81-4 116 22-41 23-78 23-116 0" fill="#23301f"/>
</svg>
