<svg xmlns="http://www.w3.org/2000/svg" viewBox="0 0 1200 420" role="img" aria-label="Roman basilica doorway illustration">
  <defs>
    <linearGradient id="bg" x1="0" y1="0" x2="1" y2="1">
      <stop offset="0%" stop-color="#3b2f43"/>
      <stop offset="100%" stop-color="#a36034"/>
    </linearGradient>
    <linearGradient id="stone" x1="0" y1="0" x2="0" y2="1">
      <stop offset="0%" stop-color="#edd6b2"/>
      <stop offset="100%" stop-color="#b7895f"/>
    </linearGradient>
  </defs>
  <rect width="1200" height="420" fill="url(#bg)"/>
  <circle cx="240" cy="92" r="60" fill="#f4d68c" opacity=".2"/>
  <rect x="170" y="110" width="860" height="250" rx="18" fill="#674632"/>
  <rect x="250" y="85" width="700" height="275" rx="14" fill="#7e5940"/>
  <rect x="310" y="120" width="580" height="220" rx="12" fill="#926a4d"/>
  <rect x="355" y="155" width="58" height="150" rx="12" fill="url(#stone)"/>
  <rect x="787" y="155" width="58" height="150" rx="12" fill="url(#stone)"/>
  <path d="M458 340V215c0-84 62-140 142-140s142 56 142 140v125z" fill="url(#stone)"/>
  <path d="M495 340V224c0-60 44-101 105-101s105 41 105 101v116z" fill="#522f21"/>
  <rect x="560" y="192" width="80" height="148" rx="38" fill="#251612"/>
  <rect x="596" y="192" width="8" height="148" fill="#d9bf8c" opacity=".74"/>
  <circle cx="600" cy="110" r="24" fill="#f4d68c"/>
  <path d="M600 78v64M568 110h64" stroke="#6b4730" stroke-width="8" stroke-linecap="round"/>
</svg>
